<svg width="15" height="42" viewBox="0 0 15 42" fill="none" xmlns="http://www.w3.org/2000/svg">
<path d="M6.36426 41C6.36426 41.5523 6.81197 42 7.36426 42C7.91654 42 8.36426 41.5523 8.36426 41L6.36426 41ZM8.07136 0.292892C7.68084 -0.0976296 7.04767 -0.0976295 6.65715 0.292892L0.293189 6.65685C-0.0973358 7.04738 -0.0973358 7.68054 0.293189 8.07107C0.683713 8.46159 1.31688 8.46159 1.7074 8.07107L7.36426 2.41422L13.0211 8.07107C13.4116 8.46159 14.0448 8.46159 14.4353 8.07107C14.8258 7.68054 14.8258 7.04738 14.4353 6.65685L8.07136 0.292892ZM8.36426 41L8.36426 1L6.36426 1L6.36426 41L8.36426 41Z" fill="#A4A9B1"/>
</svg>
